# xmcd
# 
# Track frame offsets:
#     150
#     11532
#     31982
#     50889
#     63154
#     84409
#     90004
#     104334
#     119462
#     131044
#     153229
#     163369
#     179039
#     201209
#     222701
#     236436
#     254686
#     271769
#     290909
#     306651
#     322576
#     341144
# 
# Disc length: 4798
# 
# Revision: 1
# Processed by: cddbd v1.5.2PL0 Copyright (c) Steve Scherf et al.
# Submitted via: fre:ac v1.0.31
# 
DISCID=4c12bc16
DTITLE=Various Artist - 21 -Portrait Of Sheila
DYEAR=1962
DGENRE=Jazz
TTITLE0=Sheila Jordan - Falling in love with you
TTITLE1=Sheila Jordan - If you could see me now
TTITLE2=Sheila Jordan - Am I blue
TTITLE3=Sheila Jordan - Dat dere
TTITLE4=Sheila Jordan - When the world was young
TTITLE5=Sheila Jordan - Let's face the music and dance
TTITLE6=Sheila Jordan - Laugh, clown, laugh
TTITLE7=Sheila Jordan - Who can I turn to?
TTITLE8=Sheila Jordan - Baltimore oriole
TTITLE9=Sheila Jordan - I'm a fool to want you
TTITLE10=Sheila Jordan - Hum drum blues
TTITLE11=Sheila Jordan - Willow weep for me
TTITLE12=Dodd Greene - My hour of need
TTITLE13=Dodd Greene - Trouble in mind
TTITLE14=Dodd Greene - You are my sunshine
TTITLE15=Dodd Greene - I'll never stop loving you
TTITLE16=Dodd Greene - I won't cry anymore
TTITLE17=Dodd Greene - Lonesome road
TTITLE18=Dodd Greene - Let there be love
TTITLE19=Dodd Greene - There must be a way
TTITLE20=Dodd Greene - Down by the riverside
TTITLE21=Dodd Greene - Little things mean a lot
EXTD=YEAR: 1962
EXTT0=
EXTT1=
EXTT2=
EXTT3=
EXTT4=
EXTT5=
EXTT6=
EXTT7=
EXTT8=
EXTT9=
EXTT10=
EXTT11=
EXTT12=
EXTT13=
EXTT14=
EXTT15=
EXTT16=
EXTT17=
EXTT18=
EXTT19=
EXTT20=
EXTT21=
PLAYORDER=
